<?xml version="1.0" encoding="utf-8"?>
<!-- Generator: Adobe Illustrator 20.1.0, SVG Export Plug-In . SVG Version: 6.00 Build 0)  -->
<svg version="1.1" id="Lag_1" xmlns="http://www.w3.org/2000/svg" xmlns:xlink="http://www.w3.org/1999/xlink" x="0px" y="0px"
	 width="500px" height="300px" viewBox="0 0 500 300" enable-background="new 0 0 500 300" xml:space="preserve">
<linearGradient id="SVGID_1_" gradientUnits="userSpaceOnUse" x1="142.5961" y1="150.6801" x2="358.404" y2="150.6801" gradientTransform="matrix(1 0 0 -1 0 300.6801)">
	<stop  offset="0" style="stop-color:#153D89"/>
	<stop  offset="6.580698e-02" style="stop-color:#1E4C96"/>
	<stop  offset="0.2558" style="stop-color:#3574B6"/>
	<stop  offset="0.4072" style="stop-color:#448CCA"/>
	<stop  offset="0.5" style="stop-color:#4995D1"/>
	<stop  offset="0.5928" style="stop-color:#448CCA"/>
	<stop  offset="0.7442" style="stop-color:#3574B6"/>
	<stop  offset="0.9342" style="stop-color:#1E4C96"/>
	<stop  offset="1" style="stop-color:#153D89"/>
</linearGradient>
<path fill="url(#SVGID_1_)" d="M358.4,242.8c0,8.3-6.8,15.1-15.1,15.1H157.7c-8.3,0-15.1-6.8-15.1-15.1V57.2
	c0-8.3,6.8-15.1,15.1-15.1h185.6c8.3,0,15.1,6.8,15.1,15.1V242.8z"/>
<g>
	<g>
		<path fill="#FFFFFF" d="M250.3,231.1c-15.5,0-29.3-5.4-39.3-15l0,0c-9.9-9.4-15.9-22.9-15.9-38.6l0,0c0-18.8,8.9-37.2,19.1-52.3
			l0,0l41.6-61.9L278.9,80l-0.4,0.6l0.4-0.6l0.6,0.4L248,124.9c3.3-1.1,7.2-1.6,11-1.6l0,0c29,0,46.9,25.1,46.9,52.3l0,0
			c0,16.1-5.8,30.1-15.6,39.9l0,0C280.4,225.4,266.5,231.1,250.3,231.1L250.3,231.1L250.3,231.1L250.3,231.1z M232.6,157.5
			c-4.2,5.4-6.5,12.5-6.5,19.3l0,0c0,6.7,2.3,13.8,6.5,19.1l0,0c4.2,5.4,10.1,8.9,17.5,8.9l0,0c7.4,0,13.3-3.7,17.4-8.9l0,0
			c4.1-5.4,6.4-12.4,6.4-19.1l0,0c0-6.9-2.3-13.9-6.4-19.3l0,0c-4.1-5.4-10-9-17.4-9l0,0C242.7,148.5,236.7,152.1,232.6,157.5
			L232.6,157.5z"/>
	</g>
</g>
</svg>
