<?xml version="1.0" encoding="utf-8"?>
<!-- Generator: Adobe Illustrator 20.1.0, SVG Export Plug-In . SVG Version: 6.00 Build 0)  -->
<svg version="1.1" id="Lag_1" xmlns="http://www.w3.org/2000/svg" xmlns:xlink="http://www.w3.org/1999/xlink" x="0px" y="0px"
	 width="500px" height="300px" viewBox="0 0 500 300" enable-background="new 0 0 500 300" xml:space="preserve">
<g>
	<g id="ANIMAL_PLANET_HD_1_">
		<g id="ANI_AL__PLANET_1_">
			<path fill="#FFFFFF" d="M368.7,67.8h-13l-9.3,97.3h10.3l1.3-17.7h7.3l1.1,17.7h11.5L368.7,67.8z M359.1,135.2L362,94l2.5,41.2
				H359.1z"/>
			<polygon fill="#FFFFFF" points="167.5,165.1 167.5,111.9 179.2,165.1 188.6,165.1 188.6,67.8 179.3,67.8 179.3,121.8 169.5,67.8 
				158,67.8 158,165.1 			"/>
			<polygon fill="#FFFFFF" points="402.9,146 402.9,67.8 381,67.8 381,165.1 421.2,165.1 421.2,146 			"/>
			<path fill="#FFFFFF" d="M141.2,67.8h-39.8L79.3,234.7h29.6l3.1-26.1h15l2.1,26.1h34.6L141.2,67.8z M114.7,179l6.3-54.8l4.2,54.8
				H114.7z"/>
			<rect x="194.8" y="67.8" fill="#FFFFFF" width="26.1" height="97.3"/>
			<polygon fill="#FFFFFF" points="324.2,200.8 307.7,169.7 292.7,169.7 292.7,234.7 308.2,234.7 308.2,204.2 325.3,234.7 
				339.6,234.7 339.6,169.7 324.2,169.7 			"/>
			<polygon fill="#FFFFFF" points="360.7,207.6 377.2,207.6 377.2,195.2 360.7,195.2 360.7,182.8 377.6,182.8 377.6,169.7 
				343.3,169.7 343.3,234.7 378.1,234.7 378.1,221 360.7,221 			"/>
			<path fill="#FFFFFF" d="M190.2,169.7H167v64.9h17.4V212h5.9c8.3,0,16.2-5.2,16.2-13.5v-15.4C206.4,175,198.5,169.7,190.2,169.7z
				 M190.1,196.4c0,1.9-1.1,2.6-3,2.6h-2.8v-16.1h2.8c1.9,0,3,0.7,3,2.6V196.4z"/>
			<polygon fill="#FFFFFF" points="380.7,182.8 392.2,182.8 392.2,234.7 409.6,234.7 409.6,182.8 421,182.8 421,169.7 380.7,169.7 
							"/>
			<polygon fill="#FFFFFF" points="227.3,169.7 209.8,169.7 209.8,234.7 242.5,234.7 242.5,220.6 227.3,220.6 			"/>
			<path fill="#FFFFFF" d="M278.1,169.7h-21.5l-11.9,64.9h16.6l1.1-8.9h8.8l1.2,8.9H290L278.1,169.7z M264,213.1l2.8-22.2l2.9,22.2
				H264z"/>
		</g>
		<polygon id="M_2_" fill="#C5D000" points="343.3,107.6 343.3,67.8 226.7,67.8 226.7,91.4 301.1,91.4 226.7,105.9 226.7,123 
			300.9,139.2 226.7,139.2 226.7,165.1 343.3,165.1 343.3,127.3 290.1,117.1 		"/>
		<g id="tm_1_" display="none">
			<polygon id="T_1_" display="inline" fill="#FFFFFF" points="396.6,139.6 396.6,143.4 395.9,143.4 395.9,139.6 394.5,139.6 
				394.5,139 398,139 398,139.6 			"/>
			<polygon id="M_1_" display="inline" fill="#FFFFFF" points="403.1,143.4 403.1,139.7 403.1,139.7 401.6,143.4 401.2,143.4 
				399.7,139.7 399.7,139.7 399.7,143.4 398.9,143.4 398.9,139 400.1,139 401.4,142.4 402.7,139 403.9,139 403.9,143.4 			"/>
		</g>
	</g>
	<g>
		<polygon fill="#FFFFFF" points="407.8,138.3 407.8,142.6 406.9,142.6 406.9,138.3 405.4,138.3 405.4,137.6 409.3,137.6 
			409.3,138.3 		"/>
	</g>
	<g>
		<polygon fill="#FFFFFF" points="415,142.6 415,138.4 414.9,138.4 413.3,142.6 412.8,142.6 411.2,138.4 411.1,138.4 411.1,142.6 
			410.3,142.6 410.3,137.6 411.6,137.6 413.1,141.4 414.5,137.6 415.8,137.6 415.8,142.6 		"/>
	</g>
</g>
</svg>
