<?xml version="1.0" encoding="utf-8"?>
<!-- Generator: Adobe Illustrator 20.1.0, SVG Export Plug-In . SVG Version: 6.00 Build 0)  -->
<svg version="1.1" id="Lag_1" xmlns="http://www.w3.org/2000/svg" xmlns:xlink="http://www.w3.org/1999/xlink" x="0px" y="0px"
	 width="500px" height="300px" viewBox="0 0 500 300" enable-background="new 0 0 500 300" xml:space="preserve">
<g>
	<g id="ANIMAL_PLANET_HD_2_">
		<g id="ANI_AL__PLANET_2_">
			<path fill="#4A4A49" d="M368.8,66.8h-13l-9.3,97.5h10.3l1.3-17.7h7.3l1.1,17.7H378L368.8,66.8z M359.2,134.3l2.9-41.3l2.5,41.3
				H359.2z"/>
			<polygon fill="#4A4A49" points="167.3,164.3 167.2,111 179,164.3 188.5,164.3 188.5,66.8 179.1,66.8 179.1,120.9 169.3,66.8 
				157.7,66.8 157.7,164.3 			"/>
			<polygon fill="#4A4A49" points="403.1,145.1 403.1,66.8 381.1,66.8 381.1,164.3 421.4,164.3 421.4,145.1 			"/>
			<path fill="#4A4A49" d="M141,66.8h-39.9L78.9,234h29.7l3.1-26.1h15l2.1,26.1h34.7L141,66.8z M114.4,178.2l6.3-54.9l4.2,54.9
				H114.4z"/>
			<rect x="194.6" y="66.8" fill="#4A4A49" width="26.2" height="97.5"/>
			<polygon fill="#4A4A49" points="324.3,200.1 307.7,168.9 292.7,168.9 292.7,234 308.2,234 308.2,203.4 325.4,234 339.7,234 
				339.7,168.9 324.3,168.9 			"/>
			<polygon fill="#4A4A49" points="360.8,206.8 377.4,206.8 377.4,194.5 360.8,194.5 360.8,182 377.8,182 377.8,168.9 343.4,168.9 
				343.4,234 378.2,234 378.2,220.3 360.8,220.3 			"/>
			<path fill="#4A4A49" d="M190,168.9h-23.3V234h17.4v-22.6h5.9c8.3,0,16.2-5.2,16.2-13.5v-15.5C206.2,174.2,198.4,168.9,190,168.9z
				 M190,195.6c0,1.9-1.1,2.6-3,2.6h-2.8v-16.1h2.8c1.9,0,3,0.7,3,2.6V195.6z"/>
			<polygon fill="#4A4A49" points="380.9,182 392.4,182 392.4,234 409.8,234 409.8,182 421.3,182 421.3,168.9 380.9,168.9 			"/>
			<polygon fill="#4A4A49" points="227.1,168.9 209.7,168.9 209.7,233.9 242.5,233.9 242.5,219.9 227.1,219.9 			"/>
			<path fill="#4A4A49" d="M278.1,168.9h-21.5l-11.9,65h16.6l1.1-9h8.8l1.2,9H290L278.1,168.9z M263.9,212.4l2.8-22.3l2.9,22.3
				H263.9z"/>
		</g>
		<polygon id="M_4_" fill="#C5D000" points="343.4,106.6 343.4,66.8 226.6,66.8 226.6,90.4 301.1,90.4 226.6,105 226.6,122.1 
			300.9,138.3 226.6,138.3 226.6,164.3 343.4,164.3 343.4,126.4 290.1,116.2 		"/>
		<g id="tm_2_" display="none">
			<polygon id="T_2_" display="inline" fill="#FFFFFF" points="396.8,138.7 396.8,142.6 396,142.6 396,138.7 394.6,138.7 
				394.6,138.1 398.2,138.1 398.2,138.7 			"/>
			<polygon id="M_3_" display="inline" fill="#FFFFFF" points="403.3,142.6 403.3,138.8 403.3,138.8 401.8,142.6 401.3,142.6 
				399.9,138.8 399.9,138.8 399.9,142.6 399.1,142.6 399.1,138.1 400.3,138.1 401.6,141.5 402.9,138.1 404,138.1 404,142.6 			"/>
		</g>
	</g>
	<g>
		<polygon fill="#4A4A49" points="408,137.4 408,141.7 407.1,141.7 407.1,137.4 405.6,137.4 405.6,136.7 409.5,136.7 409.5,137.4 		
			"/>
	</g>
	<g>
		<polygon fill="#4A4A49" points="415.2,141.7 415.2,137.6 415.2,137.6 413.5,141.7 413,141.7 411.4,137.6 411.3,137.6 411.3,141.7 
			410.5,141.7 410.5,136.7 411.8,136.7 413.3,140.5 414.7,136.7 416,136.7 416,141.7 		"/>
	</g>
</g>
</svg>
