<?xml version="1.0" encoding="utf-8"?>
<!-- Generator: Adobe Illustrator 20.1.0, SVG Export Plug-In . SVG Version: 6.00 Build 0)  -->
<svg version="1.1" id="Lag_1" xmlns="http://www.w3.org/2000/svg" xmlns:xlink="http://www.w3.org/1999/xlink" x="0px" y="0px"
	 width="500px" height="300px" viewBox="0 0 500 300" enable-background="new 0 0 500 300" xml:space="preserve">
<g>
	<g id="ANIMAL_PLANET_HD_1_">
		<g id="tm_1_" display="none">
			<polygon id="T_1_" display="inline" fill="#FFFFFF" points="396.6,139.6 396.6,143.4 395.9,143.4 395.9,139.6 394.5,139.6 
				394.5,139 398,139 398,139.6 			"/>
			<polygon id="M_1_" display="inline" fill="#FFFFFF" points="403.1,143.4 403.1,139.7 403.1,139.7 401.6,143.4 401.2,143.4 
				399.7,139.7 399.7,139.7 399.7,143.4 398.9,143.4 398.9,139 400.1,139 401.4,142.4 402.7,139 403.9,139 403.9,143.4 			"/>
		</g>
	</g>
</g>
<g>
	<g>
		<g>
			<g>
				<g>
					<path fill="#1D1D1B" d="M222.7,191.8c3.2,3.1,10.3,6.9,15.8,6.9c6.6,0,10.6-3.8,10.6-6.7c0-3.6-2.8-5.5-7-6.2l-6.6-1.2
						c-15.1-2.8-19.3-7.7-19.3-15.3c0-9.1,7.7-17.5,21-17.5c7.4,0,14,2.2,21.3,7.4l-6.6,8.1c-5.7-4.7-10.7-6-14.4-6
						c-5,0-9.9,2.4-9.9,6.7c0,3.2,2.5,4.9,7,5.6l11.6,2.2c9.6,1.7,14.1,6.3,14.1,14.3c0,7.9-6.4,18-22.7,18
						c-8.5,0-16.8-3.6-22.7-8.2L222.7,191.8z"/>
					<path fill="#1D1D1B" d="M418,118.8V74.3h-47.3v44.6L418,118.8L418,118.8z M395.6,113.1c-0.2,0-0.6,0-0.8,0
						c-0.6,0-1.1-0.1-1.6-0.2c-0.6-0.1-1-0.2-1.5-0.2c-0.6-0.1-1.2-0.2-1.7-0.4c-0.3-0.1-0.6-0.2-0.9-0.3c-0.3-0.1-0.6-0.2-0.9-0.3
						c-0.8-0.3-1.4-0.6-2.1-1c-0.3-0.2-0.6-0.4-0.9-0.6c-0.2-0.2-0.6-0.3-0.8-0.6l-0.6-0.4l-0.6-0.5c-0.2-0.2-0.5-0.4-0.7-0.6
						l-0.2-0.2c-0.2-0.2-0.5-0.5-0.7-0.8c-0.2-0.2-0.4-0.5-0.6-0.7c-0.2-0.2-0.4-0.5-0.6-0.8c-0.2-0.2-0.2-0.4-0.4-0.6
						s-0.3-0.6-0.5-0.9c-0.2-0.5-0.6-1-0.7-1.6c-0.2-0.3-0.2-0.7-0.4-1c-0.1-0.3-0.2-0.6-0.3-0.9c-0.1-0.2-0.1-0.5-0.2-0.7l-0.1-0.3
						c-0.1-0.3-0.1-0.6-0.2-0.9v-0.2c0-0.2-0.1-0.6-0.1-0.8s0-0.5,0-0.8c0-0.3,0-0.6,0-1c0-0.5,0.1-0.9,0.2-1.3
						c0.2-1.3,0.5-2.5,0.9-3.7c0.3-0.9,0.8-1.8,1.3-2.6l0.2-0.4l0.4-0.6c0.2-0.2,0.4-0.6,0.6-0.8s0.4-0.5,0.6-0.6l0.6-0.6
						c0.2-0.2,0.5-0.5,0.7-0.7c0.3-0.2,0.6-0.5,0.9-0.7l0.5-0.3l0.6-0.4c0.3-0.2,0.6-0.4,0.9-0.6c0.4-0.2,0.7-0.4,1.1-0.6
						c0.5-0.2,0.9-0.5,1.4-0.6c0.9-0.4,2-0.7,3.2-0.9l0.6-0.1l0.4-0.1l0.3-0.1l0.2-0.1h0.2c0.2,0,0.6-0.1,0.8-0.1h0.6
						c0.3,0,0.7,0,1-0.1h0.5c0.4,0,0.9,0,1.3,0.1c0.2,0,0.5,0,0.8,0.1c0.4,0.1,0.7,0.1,1.1,0.2l0.2,0.1c0.2,0,0.5,0.1,0.6,0.1
						c0.2,0.1,0.5,0.1,0.8,0.2c0.2,0.1,0.5,0.1,0.7,0.2l0.5,0.1c0.2,0.1,0.5,0.2,0.6,0.2l0.6,0.2l0.2,0.1l0.6,0.2
						c0.2,0.1,0.5,0.2,0.7,0.2l0.6,0.2c0.2,0.1,0.5,0.2,0.7,0.2c0.4,0.2,0.7,0.2,0.9,0.4c0.6,0.2,1,0.4,1,0.4v6l-0.6-0.4
						c-0.2-0.2-0.6-0.3-0.9-0.5l-0.6-0.3c-0.2-0.2-0.6-0.2-0.9-0.4c-0.4-0.2-0.7-0.3-1.1-0.5c-0.3-0.1-0.6-0.2-0.9-0.3
						c0,0-0.2-0.1-0.6-0.2c-0.2-0.1-0.5-0.2-0.7-0.2c-0.2-0.1-0.4-0.2-0.6-0.2c-0.3-0.1-0.8-0.2-1.2-0.2c-0.3-0.1-0.6-0.1-0.9-0.2
						c-0.3-0.1-0.7-0.1-1.1-0.2l-0.6-0.1c-0.3,0-0.6,0-0.9,0h-0.4c-0.4,0-0.9,0-1.3,0.1c-0.2,0-0.5,0.1-0.7,0.1
						c-0.2,0-0.5,0.1-0.7,0.1l-0.6,0.2l-0.6,0.2c-0.2,0.1-0.5,0.2-0.7,0.2l-0.6,0.2l-0.6,0.2c-1.3,0.6-2.5,1.4-3.6,2.5l-0.2,0.2
						l-0.4,0.5l-0.3,0.4c-0.2,0.3-0.5,0.7-0.7,1l-0.2,0.5l-0.3,0.6l-0.1,0.3l-0.2,0.6c-0.1,0.2-0.2,0.5-0.2,0.7
						c-0.1,0.3-0.2,0.7-0.2,0.9c-0.1,0.5-0.1,0.9-0.2,1.3v0.4c0,0.2,0,0.4,0,0.6v0.6c0.1,0.5,0.1,1.1,0.3,1.7
						c0.1,0.2,0.2,0.5,0.2,0.7c0.1,0.3,0.2,0.6,0.3,0.9l0.2,0.6l0.3,0.6l0.3,0.4l0.3,0.5l0.3,0.5c0.2,0.3,0.5,0.6,0.8,0.8l0.1,0.1
						l0.1,0.1l0.1,0.1l0.2,0.2l0.5,0.4l0.6,0.4l0.4,0.3l0.4,0.2c0.3,0.2,0.6,0.3,0.9,0.5l0.4,0.2l0.2,0.1l0.4,0.2
						c0.9,0.3,1.7,0.6,2.6,0.7c0.6,0.1,1.1,0.2,1.6,0.2c0.5,0,0.9,0.1,1.3,0.1c0.2,0,0.4,0,0.6,0c0.3,0,0.7,0,1.2-0.1
						c0.2,0,0.6-0.1,0.9-0.1l0.4-0.1c1-0.2,2.3-0.5,3.6-0.9c0.7-0.2,1.4-0.6,2.2-0.9c0.4-0.2,0.9-0.4,1.3-0.6
						c0.4-0.2,0.8-0.5,1.2-0.7l0.5-0.2l0.2-0.2v6.1l-0.3,0.2c-0.2,0.1-0.5,0.2-0.7,0.3c-0.2,0.1-0.5,0.2-0.7,0.3
						c-0.4,0.2-0.7,0.3-1,0.4c-0.2,0.1-0.4,0.2-0.6,0.2l-0.2,0.1c-0.3,0.1-0.6,0.2-0.9,0.3c-0.2,0.1-0.6,0.2-0.8,0.2
						c-0.4,0.1-0.8,0.2-1.2,0.3c-0.2,0.1-0.6,0.1-0.8,0.2c-0.5,0.1-0.9,0.2-1.4,0.2c-0.3,0-0.6,0.1-0.9,0.1h-0.2
						c-0.9,0.1-1.8,0.1-2.8,0.1L395.6,113.1z"/>
					<g>
						<g>
							<path fill="#1D1D1B" d="M345.5,100.9l-0.2-0.2l-0.5-0.5c-0.3-0.2-0.6-0.4-1-0.6c-0.6-0.2-1.1-0.4-1.7-0.5
								c-0.3-0.1-0.6-0.1-1-0.2c-0.2,0-0.4-0.1-0.6-0.1h-0.6c-2,0-5.5,0-5.5,0v8.8h5.7h0.3c0.2,0,0.5,0,0.8-0.1
								c0.6-0.1,1.4-0.2,2.2-0.4c0.7-0.2,1.4-0.6,1.9-1.1l0.6-0.6c0.5-0.7,0.6-1.4,0.6-1.8v-0.3V103c0-0.2,0-0.5-0.1-0.9
								C346,101.8,345.9,101.3,345.5,100.9z M337.4,93.9h0.6c0.6-0.1,1.3-0.2,2.1-0.3l0.5-0.2c0.6-0.2,1.2-0.6,1.7-1
								c0.4-0.4,0.6-0.8,0.8-1.1c0.2-0.5,0.2-0.9,0.3-1.3c0.1-0.3,0-0.5,0-0.5v-0.3c0-0.4-0.1-0.9-0.4-1.5c-0.2-0.2-0.3-0.6-0.6-0.8
								c-0.3-0.3-0.6-0.6-1.1-0.7c-0.8-0.3-1.7-0.5-2.4-0.6c-0.3,0-0.6,0-0.9,0c-0.6,0-3.8,0-3.8,0v8.3h2.8
								C336.9,93.9,337.2,93.9,337.4,93.9z M316.1,74.3v44.6h47.4V74.3L316.1,74.3L316.1,74.3z M349.7,109.5
								c-3.2,3.2-9.2,3.1-9.2,3.1h-12.1V80.5h10.4c5.6,0,8.1,2.9,8.1,2.9s2.3,2,2.3,5.4c0,3.4-1.5,4.7-2,5.2
								c-0.9,0.9-2.1,1.5-2.1,1.5s2.6,0.6,4.7,2.6c2.4,2.4,2.2,5.6,2.2,5.6S352.3,106.9,349.7,109.5z"/>
						</g>
					</g>
					<path fill="#1D1D1B" d="M286.4,107.5c0.6-0.1,1.4-0.2,2.2-0.4c0.7-0.2,1.4-0.6,2-1.1l0.5-0.6c0.5-0.7,0.6-1.4,0.6-1.8v-0.3V103
						c0-0.2,0-0.5-0.1-0.9c-0.1-0.4-0.3-0.9-0.6-1.3l-0.2-0.2l-0.5-0.5c-0.3-0.2-0.6-0.4-1-0.6c-0.5-0.2-1.1-0.4-1.7-0.5
						c-0.3-0.1-0.6-0.1-1-0.2c-0.2,0-0.4-0.1-0.6-0.1h-0.6c-2.1,0-5.5,0-5.5,0v8.9h5.7h0.3C285.8,107.6,286.1,107.6,286.4,107.5z
						 M283.4,93.9c0.6-0.1,1.3-0.2,2.1-0.3l0.5-0.2c0.6-0.2,1.2-0.6,1.7-1c0.4-0.4,0.6-0.8,0.8-1.1c0.2-0.5,0.2-0.9,0.3-1.3
						c0-0.3,0-0.5,0-0.5v-0.3c0-0.4-0.1-0.9-0.4-1.5c-0.2-0.2-0.3-0.6-0.6-0.8c-0.3-0.3-0.7-0.6-1.1-0.7c-0.8-0.3-1.7-0.5-2.4-0.6
						c-0.3,0-0.6,0-0.9,0c-0.6,0-3.8,0-3.8,0v8.3h2.8c0,0,0.2,0,0.5,0L283.4,93.9z M308.8,74.3h-47.3v44.6h47.3V74.3z M286,112.7
						h-12.1V80.6h10.4c5.6,0,8.1,2.9,8.1,2.9s2.3,2,2.3,5.4s-1.5,4.7-2,5.2c-0.9,0.9-2.1,1.5-2.1,1.5s2.7,0.6,4.7,2.6
						c2.4,2.4,2.3,5.6,2.3,5.6s0.2,3.1-2.4,5.7C291.9,112.8,286,112.7,286,112.7z"/>
					<path fill="#1D1D1B" d="M355.8,135.7v47.4c0,11.5,1.3,13.7,4.7,15.6L355,208c-7.3-4.3-10.7-8.7-10.7-17.5v-54.8L355.8,135.7z"
						/>
					<path fill="#1D1D1B" d="M415.1,195.1c-6.4,8.1-15.3,13-24.9,13c-18.7,0-29.6-14.1-29.6-28.2c0-14.1,10.8-28.2,29.6-28.2
						c11.1,0,27.8,9.2,27.8,30.1v2.1h-44.5c0.6,8.2,8.3,14.1,16.4,14.1c6.2,0,11.5-3,15.5-8.3L415.1,195.1z M404.5,174.4
						c-2.4-8.2-8.5-12.5-15.8-12.5c-7.3,0-13.3,4.5-15.2,12.5H404.5z"/>
				</g>
			</g>
			<path fill="#1D1D1B" d="M82,118.7v69.4c0,11.2,5.2,15.5,17.7,21.4l0.5,0.2l5.6-10l-6.6-3.8c-3.1-1.8-4.5-3.7-4.5-10v-67.3H82z"/>
		</g>
		<path fill="#1D1D1B" d="M110.1,153h11.5v53.6h-11.5V153z"/>
		<circle fill="#1D1D1B" cx="115.8" cy="140.2" r="7.2"/>
	</g>
	<g>
		<path fill="#1D1D1B" d="M184.5,151.6c-16.3,0-26.6,10.7-29.1,22.8h-11.1v-20c0-4,2.8-7.9,7.4-7.9c2.1,0,3.6,0.3,5.1,1l4.7-10.4
			c-2.4-1-6.1-1.4-8.9-1.4c-13.9,0-20,9.4-20,19.4v19.3h-6.8v9.6h6.8v39.7h11.5v-39.7h10.9c1.8,12.7,12.3,24.3,29.3,24.3
			c9.6-0.1,18.5-5,25-13.1l-9.8-5.5c-4,5.3-9.3,8.3-15.6,8.3c-8.1,0-15.7-5.8-16.4-14.1h44.6v-2.1
			C212.3,160.8,195.7,151.6,184.5,151.6z M167.7,174.4c1.9-8,7.9-12.6,15.2-12.6c7.3,0,13.4,4.3,15.9,12.6H167.7z"/>
		<path fill="#1D1D1B" d="M328.3,153v30.3c0,8.3-4.1,13.8-12.6,13.8c-6.7,0-12-3.8-12-12.7V153h-10.7h-0.2h-13.4v-17.2h-11.5V153
			h-6.6v10.8h6.6v26.3c0,9.2,3.7,13.5,11.5,17.9l4.7-9.6c-3.4-2-4.7-4.7-4.7-10.4v-24.2h13.4v20.2c0,15,9.2,24,20.5,24
			c7,0,11.1-1.6,15.3-6.6h0.2v2.2c0,9.4-6.3,14.1-13.5,14.1c0,0-10.4,0-11.7-0.2V228c1.3,0.3,12.3,0.5,12.3,0.5
			c9.5,0,23.2-7.2,23.2-23.5V153L328.3,153L328.3,153z"/>
	</g>
</g>
</svg>
