<?xml version="1.0" encoding="utf-8"?>
<!-- Generator: Adobe Illustrator 20.1.0, SVG Export Plug-In . SVG Version: 6.00 Build 0)  -->
<svg version="1.1" id="Lag_1" xmlns="http://www.w3.org/2000/svg" xmlns:xlink="http://www.w3.org/1999/xlink" x="0px" y="0px"
	 width="500px" height="300px" viewBox="0 0 500 300" enable-background="new 0 0 500 300" xml:space="preserve">
<g>
	<path fill="#A70A2E" d="M249.6,151.8"/>
	<g>
		<g>
			<polygon fill="#FFFFFF" points="178.3,119.3 169.3,119.3 152,162 134.4,119.3 125.7,119.3 108.1,162 90.7,119.3 81.6,119.3 
				107.2,181.8 109,181.8 130,131.1 150.8,181.8 152.6,181.8 			"/>
			<path fill="#FFFFFF" d="M177.7,150.3c0,16.8,13.1,31.8,33.8,31.8c21.5,0,34.3-15.1,34.3-31.8c0-17.3-13.2-31.8-34.1-31.8
				C191.2,118.5,177.7,133.1,177.7,150.3z M187.1,150.3c0-13.6,10.5-23.6,24.6-23.6c14.2,0,24.7,10,24.7,23.6
				c0,13.5-10.5,23.6-24.7,23.6C197.6,173.9,187.1,163.8,187.1,150.3z"/>
			<path fill="#FFFFFF" d="M255.6,119.3v62h9.1v-26.9h3.8c4.6,0,8.5,1.5,16.8,14.2l8.4,12.7h10.9c-4.4-5.9-5.9-8-8.6-12.3
				c-4.8-7.7-8.4-13.5-14.1-17.2c6.8-2.6,10.6-8,10.6-15.2c0-10.7-8-17.4-20.8-17.4L255.6,119.3L255.6,119.3z M264.7,126.9h5.9
				c8.8,0,12.4,3.5,12.5,9.4c0.1,5.2-2.7,10.1-12.5,10.1h-5.9V126.9z"/>
			<polygon fill="#FFFFFF" points="322.3,119.3 313.1,119.3 313.1,181.3 349.3,181.3 349.3,173.3 322.3,173.3 			"/>
			<path fill="#FFFFFF" d="M359.2,181.3H384c20.9,0,33.6-15.1,33.6-31c0-14.6-10.3-31-33.7-31h-24.6L359.2,181.3L359.2,181.3z
				 M368.3,127.3h14c17.8,0,25.8,10.6,25.8,23c0,7.6-4.7,23-25.4,23h-14.5v-46H368.3z"/>
		</g>
		<g>
			<path fill="#FFFFFF" d="M326.1,43.1c-0.3,0-0.5-0.1-0.8-0.1H325c-0.5-0.1-0.9-0.1-1.4-0.2c-0.3,0-0.6-0.1-0.9-0.1
				c-0.6,0-1.1-0.1-1.7-0.1c-0.2,0-0.4,0-0.6,0c-0.4,0-0.9,0-1.3,0.1c-0.2,0-0.5,0-0.7,0.1c-0.4,0-0.7,0.1-1.1,0.1H317h-0.3
				l-0.4,0.1c-0.2,0-0.3,0.1-0.5,0.1s-0.5,0.1-0.7,0.1c-1.4,0.3-2.7,0.7-3.9,1.2c-0.6,0.2-1.2,0.5-1.8,0.8c-0.5,0.2-0.9,0.5-1.4,0.7
				c-0.4,0.2-0.8,0.5-1.2,0.8c-0.2,0.1-0.4,0.3-0.7,0.5c-0.2,0.1-0.4,0.3-0.5,0.4c-0.4,0.3-0.7,0.6-1.1,0.9
				c-0.3,0.3-0.6,0.6-0.9,0.9c-0.3,0.3-0.5,0.5-0.7,0.8s-0.5,0.5-0.7,0.8c-0.3,0.3-0.5,0.6-0.7,0.9c-0.2,0.2-0.3,0.5-0.5,0.7
				c-0.1,0.2-0.2,0.3-0.3,0.5c-0.6,1-1.2,2.1-1.6,3.3c-0.6,1.4-1,3-1.2,4.7c-0.1,0.5-0.1,1.1-0.2,1.6c0,0.4,0,0.8,0,1.3
				c0,0.3,0,0.6,0,1c0,0.3,0,0.6,0.1,1v0.2c0,0.4,0.1,0.8,0.2,1.1c0,0.1,0.1,0.3,0.1,0.4c0.1,0.3,0.1,0.6,0.2,0.9
				c0.1,0.4,0.2,0.8,0.3,1.1c0.1,0.5,0.3,0.9,0.5,1.3c0.3,0.7,0.6,1.3,0.9,2c0.2,0.4,0.4,0.7,0.6,1.1c0.2,0.3,0.4,0.5,0.5,0.8
				c0.2,0.3,0.5,0.7,0.7,1c0.3,0.3,0.5,0.6,0.8,0.9c0.3,0.4,0.6,0.7,0.9,1l0.2,0.2c0.3,0.2,0.5,0.5,0.9,0.8c0.2,0.2,0.4,0.4,0.7,0.6
				c0.2,0.2,0.5,0.4,0.7,0.5c0.3,0.2,0.6,0.4,1,0.7c0.4,0.2,0.7,0.5,1.1,0.7c0.8,0.4,1.7,0.9,2.6,1.2c0.4,0.1,0.7,0.3,1.1,0.4
				c0.4,0.1,0.8,0.3,1.2,0.4c0.7,0.2,1.4,0.4,2.2,0.5c0.6,0.1,1.2,0.2,1.9,0.3c0.7,0.1,1.3,0.1,2,0.2c0.3,0,0.7,0,1,0
				c0.2,0,0.3,0,0.5,0c1.3,0,2.4-0.1,3.5-0.1h0.2c0.4,0,0.8-0.1,1.2-0.1c0.6-0.1,1.2-0.2,1.8-0.3c0.4-0.1,0.7-0.1,1-0.2
				c0.5-0.1,1-0.2,1.5-0.3c0.3-0.1,0.7-0.2,1-0.3c0.4-0.1,0.8-0.2,1.1-0.4l0.3-0.1c0.2-0.1,0.4-0.1,0.7-0.3c0.4-0.1,0.8-0.3,1.3-0.5
				c0.3-0.1,0.6-0.3,0.9-0.4c0.3-0.1,0.6-0.3,0.9-0.4c0.1-0.1,0.3-0.1,0.4-0.2V73c-0.1,0.1-0.2,0.1-0.3,0.2l-0.5,0.3
				c-0.5,0.3-1,0.6-1.5,0.9c-0.6,0.3-1.1,0.6-1.6,0.8c-1,0.4-1.9,0.8-2.7,1.1c-1.7,0.6-3.2,1-4.6,1.2c-0.2,0-0.3,0.1-0.5,0.1
				c-0.4,0.1-0.7,0.1-1.1,0.1c-0.5,0.1-1,0.1-1.5,0.1c-0.3,0-0.6,0-0.8,0c-0.5,0-1.1,0-1.7-0.1c-0.7,0-1.3-0.1-2-0.2
				c-1.1-0.2-2.2-0.5-3.3-0.9c-0.2-0.1-0.3-0.1-0.5-0.2c-0.1,0-0.2-0.1-0.3-0.1c-0.2-0.1-0.4-0.2-0.5-0.2c-0.4-0.2-0.7-0.4-1.1-0.6
				c-0.2-0.1-0.4-0.2-0.5-0.3c-0.2-0.1-0.4-0.2-0.5-0.4c-0.2-0.2-0.4-0.3-0.7-0.5c-0.2-0.2-0.4-0.3-0.6-0.5l-0.3-0.2l-0.1-0.1
				l-0.1-0.1l-0.1-0.1c-0.3-0.3-0.7-0.7-0.9-1c-0.2-0.2-0.3-0.4-0.5-0.6c-0.1-0.2-0.3-0.4-0.4-0.6c-0.1-0.2-0.2-0.4-0.3-0.5
				c-0.2-0.3-0.3-0.5-0.4-0.8c-0.1-0.2-0.2-0.5-0.3-0.7c-0.2-0.4-0.3-0.8-0.4-1.1s-0.2-0.6-0.2-0.9c-0.2-0.8-0.3-1.5-0.4-2.1
				c0-0.2,0-0.5,0-0.7c0-0.3,0-0.6,0-0.8c0-0.1,0-0.3,0-0.5c0-0.4,0.1-1,0.1-1.6c0.1-0.4,0.1-0.8,0.2-1.2c0.1-0.3,0.1-0.6,0.2-0.9
				c0.1-0.3,0.2-0.5,0.3-0.8c0.1-0.2,0.1-0.4,0.2-0.6c0.1-0.3,0.2-0.5,0.4-0.8c0.1-0.2,0.2-0.4,0.3-0.6c0.3-0.4,0.5-0.9,0.9-1.3
				c0.1-0.2,0.2-0.3,0.4-0.5c0.2-0.2,0.3-0.4,0.5-0.6c0.1-0.1,0.2-0.2,0.3-0.3c1.4-1.4,3-2.5,4.6-3.2c0.3-0.1,0.5-0.2,0.8-0.3
				s0.5-0.2,0.8-0.3s0.6-0.2,0.8-0.3c0.3-0.1,0.5-0.1,0.8-0.2c0.3-0.1,0.5-0.1,0.8-0.2c0.3-0.1,0.6-0.1,0.9-0.1s0.6-0.1,0.9-0.1
				C320,49,320.5,49,321,49c0.2,0,0.4,0,0.5,0c0.4,0,0.8,0,1.2,0.1c0.3,0,0.5,0,0.8,0.1c0.5,0,0.9,0.1,1.4,0.2
				c0.4,0.1,0.8,0.1,1.1,0.2c0.6,0.1,1.1,0.2,1.5,0.4c0.3,0.1,0.6,0.2,0.8,0.2c0.4,0.1,0.7,0.2,0.9,0.3c0.4,0.1,0.7,0.2,0.7,0.2
				c0.4,0.1,0.7,0.3,1.1,0.4c0.5,0.2,1,0.4,1.4,0.6c0.4,0.2,0.7,0.3,1.1,0.5c0.3,0.1,0.5,0.3,0.8,0.4c0.4,0.2,0.8,0.4,1.1,0.6
				l0.8,0.4v-7.5c0,0-0.5-0.2-1.3-0.5c-0.4-0.1-0.8-0.3-1.3-0.5c-0.3-0.1-0.6-0.2-0.9-0.3c-0.2-0.1-0.5-0.2-0.7-0.2
				c-0.3-0.1-0.6-0.2-0.9-0.3c-0.2-0.1-0.4-0.1-0.7-0.2L330,44c-0.2-0.1-0.5-0.1-0.7-0.2c-0.3-0.1-0.5-0.1-0.8-0.2
				c-0.2,0-0.4-0.1-0.5-0.1c-0.3-0.1-0.6-0.1-0.9-0.2C326.7,43.3,326.4,43.2,326.1,43.1z M288.5,35.3h59.7v56.2h-59.7V35.3z"/>
			<g>
				<path fill="#FFFFFF" d="M242.6,66.3v11h7.2c0,0,0.1,0,0.4,0c0.2,0,0.6,0,1-0.1c0.8-0.1,1.8-0.2,2.8-0.6c0.9-0.3,1.8-0.8,2.4-1.4
					c0.3-0.3,0.5-0.5,0.6-0.8c0.6-0.9,0.7-1.8,0.7-2.3c0-0.2,0-0.4,0-0.4s0-0.1,0-0.3s0-0.6-0.1-1.1s-0.4-1.1-0.8-1.7
					c-0.1-0.1-0.2-0.2-0.3-0.3c-0.2-0.2-0.4-0.4-0.6-0.6c-0.4-0.3-0.8-0.5-1.3-0.7c-0.6-0.3-1.4-0.5-2.1-0.6
					c-0.4-0.1-0.8-0.1-1.3-0.2c-0.3,0-0.5,0-0.8-0.1c-0.2,0-0.5,0-0.8,0C247,66.3,242.6,66.3,242.6,66.3z"/>
				<path fill="#FFFFFF" d="M242.6,49.5V60h3.5c0,0,0.2,0,0.5,0c0.2,0,0.5,0,0.8,0c0.7-0.1,1.7-0.2,2.7-0.4c0.2-0.1,0.4-0.1,0.6-0.2
					c0.8-0.3,1.5-0.7,2.1-1.2c0.5-0.5,0.8-1,1-1.4c0.2-0.6,0.3-1.2,0.4-1.6c0-0.4,0-0.6,0-0.6s0-0.2,0-0.4c0-0.5-0.1-1.2-0.5-1.9
					c-0.2-0.3-0.4-0.7-0.7-1c-0.4-0.4-0.9-0.7-1.4-0.9c-1-0.4-2.1-0.6-3-0.7c-0.4,0-0.8,0-1.1,0C246.7,49.5,242.6,49.5,242.6,49.5z"
					/>
				<path fill="#FFFFFF" d="M235.4,43.2v40.5h15.2c0,0,7.4,0.2,11.5-3.9c3.3-3.3,3.1-7.2,3.1-7.2s0.2-4-2.8-7.1
					c-2.6-2.6-6-3.3-6-3.3s1.5-0.7,2.7-1.9c0.5-0.5,2.5-2.3,2.5-6.6s-2.9-6.8-2.9-6.8s-3.1-3.7-10.2-3.7H235.4z M219.7,35.3h59.7
					v56.2h-59.7V35.3z"/>
			</g>
			<g>
				<path fill="#FFFFFF" d="M173.9,66.3v11h7.2c0,0,0.1,0,0.4,0c0.2,0,0.6,0,1-0.1c0.8-0.1,1.8-0.2,2.8-0.6c0.9-0.3,1.8-0.8,2.4-1.4
					c0.3-0.3,0.5-0.5,0.6-0.8c0.6-0.9,0.7-1.8,0.7-2.3c0-0.2,0-0.4,0-0.4s0-0.1,0-0.3s0-0.6-0.1-1.1s-0.4-1.1-0.8-1.7
					c-0.1-0.1-0.2-0.2-0.3-0.3c-0.2-0.2-0.4-0.4-0.6-0.6c-0.4-0.3-0.8-0.5-1.3-0.7c-0.6-0.3-1.4-0.5-2.2-0.6
					c-0.4-0.1-0.8-0.1-1.3-0.2c-0.3,0-0.5,0-0.8-0.1c-0.2,0-0.5,0-0.8,0C178.2,66.3,173.9,66.3,173.9,66.3z"/>
				<path fill="#FFFFFF" d="M173.9,49.5V60h3.5c0,0,0.2,0,0.5,0c0.2,0,0.5,0,0.8,0c0.7-0.1,1.7-0.2,2.7-0.4c0.2-0.1,0.4-0.1,0.6-0.2
					c0.8-0.3,1.5-0.7,2.1-1.2c0.5-0.5,0.8-1,1-1.4c0.2-0.6,0.3-1.2,0.4-1.6c0-0.4,0-0.6,0-0.6s0-0.2,0-0.4c0-0.5-0.1-1.2-0.5-1.9
					c-0.2-0.3-0.4-0.7-0.7-1c-0.4-0.4-0.9-0.7-1.4-0.9c-1-0.4-2.1-0.6-3-0.7c-0.4,0-0.8,0-1.1,0C177.9,49.5,173.9,49.5,173.9,49.5z"
					/>
				<path fill="#FFFFFF" d="M166.6,43.2v40.5h15.2c0,0,7.4,0.2,11.5-3.9c3.3-3.3,3.1-7.2,3.1-7.2s0.2-4-2.9-7.1
					c-2.6-2.6-6-3.3-6-3.3s1.5-0.7,2.7-1.9c0.5-0.5,2.5-2.3,2.5-6.6s-2.9-6.8-2.9-6.8s-3.1-3.7-10.2-3.7H166.6z M151,35.3h59.7v56.2
					H151V35.3z"/>
			</g>
		</g>
		<g>
			<polygon fill="#FFFFFF" points="336.8,203.7 327.8,203.7 310.5,246.4 292.8,203.7 284.2,203.7 266.6,246.4 249.1,203.7 
				240,203.7 265.7,266.2 267.5,266.2 288.5,215.5 309.3,266.2 311,266.2 			"/>
			<path fill="#FFFFFF" d="M122.9,266.2v-62.6h7.8l41.3,48v-48h8.8v62.6h-7.9l-41.3-47.1v47.1H122.9z"/>
			<path fill="#FFFFFF" d="M231.3,238.8H205V258h28.9v8.3h-37.4v-62.6h35.8v8.3H205v19h26.3V238.8z"/>
			<path fill="#FFFFFF" d="M341.5,250.5c2.9,3.6,10.9,8.5,17.2,8.5c6.7,0,9.4-3.4,9.4-8.6c0-4.5-4.5-7.9-11.4-12.3
				c-8.8-5.6-15.4-9.5-15.4-18c0-9.4,6.5-16.7,18-16.7c7.3,0,11.8,2.7,14.9,4.3v10c0,0-6.7-6.7-12.9-6.7c-9.7,0-11.5,4.1-11.5,8.2
				c0,4.2,3.7,6.5,12.6,11.7c9.6,5.6,14.1,12.1,14.1,19c0,9.3-4.8,16.7-18.7,16.7c-6.8,0-12.7-2.6-16.5-4.7v-11.4H341.5z"/>
		</g>
	</g>
</g>
</svg>
