<?xml version="1.0" encoding="utf-8"?>
<!-- Generator: Adobe Illustrator 20.1.0, SVG Export Plug-In . SVG Version: 6.00 Build 0)  -->
<svg version="1.1" id="Lag_1" xmlns="http://www.w3.org/2000/svg" xmlns:xlink="http://www.w3.org/1999/xlink" x="0px" y="0px"
	 width="500px" height="300px" viewBox="0 0 500 300" enable-background="new 0 0 500 300" xml:space="preserve">
<g>
	<g>
		<rect x="246.2" y="66" fill="#FFFFFF" width="140.4" height="140.4"/>
		<rect x="246.2" y="66" fill="#FFFFFF" width="140.4" height="140.4"/>
		<rect x="106.3" y="66" fill="#0E0F0E" width="139.9" height="140.4"/>
		<path fill="#FFFFFF" d="M199.5,147.5c-3.9,6.9-11.2,11.4-19.6,11.4c-12.4,0-22.5-10.1-22.5-22.5s10.1-22.5,22.5-22.5
			c8.4,0,15.7,4.6,19.6,11.4l34.9-19.9c-10.8-18.8-31.1-31.6-54.4-31.6c-34.6,0-62.7,28.1-62.7,62.7s28,62.7,62.7,62.7
			c23.3,0,43.6-12.7,54.4-31.6L199.5,147.5z"/>
		<polygon fill="#0E0F0E" points="376.6,196.4 376.6,76.1 336.5,76.1 336.5,126.2 296.4,76.1 256.2,76.1 256.2,196.4 296.4,196.4 
			296.4,146.3 336.5,196.4 		"/>
		<polygon fill="#0E0F0E" points="317.2,229.1 319.3,233.7 324.1,233.7 327.3,216.5 321.5,216.5 320.1,224.1 317.2,217.1 
			314.3,224.1 312.9,216.5 307.1,216.5 310.5,233.7 315.1,233.7 		"/>
		<polygon fill="#0E0F0E" points="305.8,216.5 288.6,216.5 288.6,221.6 294,221.6 294,233.7 300.4,233.7 300.4,221.6 305.8,221.6 		
			"/>
		<path fill="#0E0F0E" d="M336.7,216.2c-5,0-8.9,4-8.9,8.9c0,5,4,8.9,8.9,8.9c5,0,9-4.1,9-8.9C345.6,220.1,341.6,216.2,336.7,216.2
			 M336.7,228.3c-1.8,0-3.2-1.4-3.2-3.2c0-1.8,1.4-3.2,3.2-3.2c1.8,0,3.2,1.4,3.2,3.2C339.9,226.9,338.5,228.3,336.7,228.3"/>
		<polygon fill="#0E0F0E" points="269.2,233.7 269.2,216.5 263.5,216.5 263.5,223.6 257.7,216.5 252.1,216.5 252.1,233.7 
			257.7,233.7 257.7,226.5 263.5,233.7 		"/>
		<polygon fill="#0E0F0E" points="286.7,221.6 286.7,216.5 271.6,216.5 271.6,233.7 286.7,233.7 286.7,229.1 277.4,229.1 
			277.4,227.3 285.2,227.3 285.2,223 277.4,223 277.4,221.6 		"/>
		<path fill="#0E0F0E" d="M363.8,222.6c0-3.2-2.5-6.1-6.4-6.1h-10.1v17.2h5.8v-5h1.8l2.5,5h6.4l-3.4-5.7
			C362.4,227,363.8,224.9,363.8,222.6 M353.1,221.6h3.6c0.8,0,1.4,0.6,1.4,1.4s-0.6,1.4-1.4,1.4h-3.6V221.6z"/>
		<polygon fill="#0E0F0E" points="383,216.5 375.6,216.5 371.3,222.1 371.3,216.5 365.6,216.5 365.6,233.7 371.3,233.7 371.3,227.2 
			375.6,233.7 383,233.7 376.3,224.8 		"/>
		<path fill="#0E0F0E" d="M140.6,233.7h6.1l-5.4-17.2h-8.6l-5.4,17.2h6.1l0.8-2.9h5.5L140.6,233.7z M135.6,226.5l1.5-5.3l1.5,5.3
			H135.6z"/>
		<polygon fill="#0E0F0E" points="183.6,216.5 166.4,216.5 166.4,221.6 171.8,221.6 171.8,233.7 178.2,233.7 178.2,221.6 
			183.6,221.6 		"/>
		<path fill="#0E0F0E" d="M122.4,226.8c-0.6,1.1-1.7,1.8-3.1,1.8c-2,0-3.5-1.5-3.5-3.5c0-2,1.6-3.5,3.5-3.5c1.4,0,2.4,0.7,3.1,1.8
			l4.7-2.7c-1.5-2.7-4.4-4.5-7.8-4.5c-5,0-8.9,4-8.9,8.9c0,5,4,9,8.9,9c3.3,0,6.2-1.8,7.8-4.5L122.4,226.8z"/>
		<path fill="#0E0F0E" d="M193.3,216.2c-5,0-9,4-9,8.9c0,5,4.1,8.9,9,8.9s8.9-4.1,8.9-8.9C202.3,220.2,198.2,216.2,193.3,216.2
			 M193.3,228.3c-1.8,0-3.2-1.4-3.2-3.2c0-1.8,1.4-3.2,3.2-3.2s3.2,1.4,3.2,3.2C196.5,226.9,195.1,228.3,193.3,228.3"/>
		<path fill="#0E0F0E" d="M212.7,216.2c-5,0-8.9,4-8.9,8.9c0,5,4.1,8.9,8.9,8.9c5,0,8.9-4.1,8.9-8.9
			C221.6,220.2,217.6,216.2,212.7,216.2 M212.7,228.3c-1.8,0-3.2-1.4-3.2-3.2c0-1.8,1.4-3.2,3.2-3.2c1.8,0,3.2,1.4,3.2,3.2
			C215.9,226.9,214.5,228.3,212.7,228.3"/>
		<polygon fill="#0E0F0E" points="240.5,233.7 240.5,216.5 234.7,216.5 234.7,223.6 229.1,216.5 223.3,216.5 223.3,233.7 
			229.1,233.7 229.1,226.5 234.7,233.7 		"/>
		<path fill="#0E0F0E" d="M164.9,222.7c0-3.2-2.4-6.1-6.5-6.1h-4.3h-3.6h-2.2v17.2h5.8v-5h1.8l2.5,5h6.4l-3.4-5.7
			C163.5,227,164.9,224.9,164.9,222.7 M154.2,221.6h3.6c0.8,0,1.4,0.6,1.4,1.4s-0.6,1.4-1.4,1.4h-3.6V221.6z"/>
	</g>
	<polygon fill="#0E0F0E" points="388.2,228.8 388.2,229.6 386.8,229.6 386.8,233.5 385.8,233.5 385.8,229.6 384.5,229.6 
		384.5,228.8 	"/>
	<path fill="#0E0F0E" d="M391.9,228.8h1.4v4.7h-0.9v-3.2c0-0.1,0-0.3,0-0.4v-0.4l-0.9,4h-0.9l-0.9-4c0,0.1,0,0.2,0,0.4v0.4v3.2h-0.9
		v-4.7h1.4l0.9,3.7L391.9,228.8z"/>
</g>
</svg>
