<?xml version="1.0" encoding="utf-8"?>
<!-- Generator: Adobe Illustrator 20.1.0, SVG Export Plug-In . SVG Version: 6.00 Build 0)  -->
<svg version="1.1" id="Lag_1" xmlns="http://www.w3.org/2000/svg" xmlns:xlink="http://www.w3.org/1999/xlink" x="0px" y="0px"
	 width="500px" height="300px" viewBox="0 0 500 300" enable-background="new 0 0 500 300" xml:space="preserve">
<radialGradient id="SVGID_1_" cx="428.0887" cy="741.4585" r="140.9113" gradientTransform="matrix(0.5955 0.8015 0.6132 -0.4614 -471.6573 132.2855)" gradientUnits="userSpaceOnUse">
	<stop  offset="0" style="stop-color:#242424"/>
	<stop  offset="0.2292" style="stop-color:#171717"/>
	<stop  offset="0.6231" style="stop-color:#060606"/>
	<stop  offset="0.9202" style="stop-color:#000000"/>
</radialGradient>
<polygon fill="url(#SVGID_1_)" points="359.5,216.8 165.5,250.7 131,56 325,22 "/>
<line fill="none" x1="339.6" y1="97.3" x2="339.6" y2="97.3"/>
<path fill="none" d="M271.5,161.8c0.3,2.1,1.6,3.4,4.1,3c1.6-0.3,18.7-3.4,18.7-3.4c19.9-3.5,27.8-16.7,23.6-39.5
	c-0.7-4-1.6-7.6-3-11.2c-16.9,8.6-33.2,15.5-49,21.1C268.7,146.2,271.2,160.4,271.5,161.8z"/>
<linearGradient id="SVGID_2_" gradientUnits="userSpaceOnUse" x1="283.5665" y1="189.8993" x2="263.7539" y2="262.026" gradientTransform="matrix(0.9962 8.720000e-02 8.720000e-02 -0.9962 -51.8623 303.3714)">
	<stop  offset="0" style="stop-color:#404040"/>
	<stop  offset="1" style="stop-color:#141414"/>
</linearGradient>
<path fill="url(#SVGID_2_)" d="M133.4,57.1c0,0,5.9,32.9,7,38.7c1.1,5.8,10.2,54.5,12.3,60.6c54.2-6.7,113.7-17.1,183.7-57.3
	c-1.2-10.5-0.2-9.6,0.2-9.5c0.4,0.2-11.5-66-11.5-66l-0.7,1.2L134.9,58.1L133.4,57.1z"/>
<radialGradient id="SVGID_3_" cx="192.0665" cy="270.6189" r="99.9587" gradientTransform="matrix(0.9962 8.720000e-02 8.720000e-02 -0.9962 -51.8623 303.3714)" gradientUnits="userSpaceOnUse">
	<stop  offset="0.1288" style="stop-color:#8C8C8C"/>
	<stop  offset="1" style="stop-color:#030303"/>
</radialGradient>
<polygon fill="url(#SVGID_3_)" points="135,58.1 131,56 272.5,31.2 285.6,31.5 "/>
<radialGradient id="SVGID_4_" cx="165.7462" cy="261.4596" r="91.3658" gradientTransform="matrix(0.9962 8.720000e-02 8.720000e-02 -0.9962 -51.8623 303.3714)" gradientUnits="userSpaceOnUse">
	<stop  offset="3.680980e-02" style="stop-color:#595959"/>
	<stop  offset="9.407445e-02" style="stop-color:#6E6E6E"/>
	<stop  offset="0.1809" style="stop-color:#868686"/>
	<stop  offset="0.2721" style="stop-color:#989898"/>
	<stop  offset="0.3696" style="stop-color:#A2A2A2"/>
	<stop  offset="0.4847" style="stop-color:#A6A6A6"/>
	<stop  offset="0.5388" style="stop-color:#9D9D9D"/>
	<stop  offset="1" style="stop-color:#595959"/>
</radialGradient>
<polygon fill="url(#SVGID_4_)" points="134.9,58.1 179.9,50.1 236.6,40.1 133.5,57.3 "/>
<polygon fill="#080808" points="165.5,250.7 168.5,247.2 357.4,214.1 359.5,216.7 "/>
<linearGradient id="SVGID_5_" gradientUnits="userSpaceOnUse" x1="176.2306" y1="212.6693" x2="177.8647" y2="213.1268" gradientTransform="matrix(0.9962 8.720000e-02 8.720000e-02 -0.9962 -51.8623 303.3714)">
	<stop  offset="0" style="stop-color:#000000"/>
	<stop  offset="0.5" style="stop-color:#595959"/>
	<stop  offset="1" style="stop-color:#000000"/>
</linearGradient>
<path fill="url(#SVGID_5_)" d="M133.4,57.1c0,0,5.9,32.9,7,38.7c1.1,5.8,10.2,54.5,12.3,60.6L134.9,58L133.4,57.1z"/>
<linearGradient id="SVGID_6_" gradientUnits="userSpaceOnUse" x1="359.0209" y1="279.4248" x2="359.8818" y2="279.6669" gradientTransform="matrix(0.9962 8.720000e-02 8.720000e-02 -0.9962 -51.8623 303.3714)">
	<stop  offset="0" style="stop-color:#000000"/>
	<stop  offset="0.5" style="stop-color:#595959"/>
	<stop  offset="1" style="stop-color:#000000"/>
</linearGradient>
<path fill="url(#SVGID_6_)" d="M336.3,89.2c0.4,0.2-11.4-66-11.4-66l-0.7,1.2C324.4,24.4,335.9,89.1,336.3,89.2z"/>
<path fill="#12100B" d="M167.2,259.7l3.7-0.7l3,16.9l-3.7,0.7L167.2,259.7z M175.2,258.3l3.5-0.6l9.7,9l-1.8-10.4l3.7-0.7l3,16.9
	l-3.1,0.6l-10.2-9.3l1.9,10.7l-3.7,0.7L175.2,258.3z M192.8,255.1l4.1-0.7l6.5,11.1l2.3-12.7l4-0.7l-3.8,18.2l-3.3,0.6L192.8,255.1z
	 M212.3,251.8l12.8-2.2l0.6,3.3l-9.1,1.6l0.6,3.5l8-1.4l0.6,3.3l-8,1.4l0.7,3.5l9.1-1.6l0.6,3.3l-12.9,2.3L212.3,251.8z M230,263.5
	l1.7-3c1.7,1,3.5,1.5,5.4,1.2c1.5-0.2,2.3-1.1,2.1-2.1v-0.1c-0.2-0.9-0.8-1.3-3.8-1.6c-3.5-0.2-5.9-0.8-6.5-4.2v-0.1
	c-0.6-3,1.6-5.5,5-6.2c2.5-0.4,4.7,0,6.7,1.1l-1.4,3.1c-1.6-0.7-3.3-1.2-4.7-0.9c-1.4,0.2-2.1,1.1-1.9,1.9v0.1c0.2,1.1,1,1.3,4,1.6
	c3.6,0.3,5.8,1.2,6.3,4.1v0.1c0.6,3.4-1.6,5.7-5.3,6.3C235.1,265.4,232.3,265,230,263.5z M248.6,248.9l-5.1,0.9l-0.6-3.5l14-2.5
	l0.6,3.5l-5.1,0.9l2.4,13.5l-3.7,0.7L248.6,248.9z M259.6,243.4l3.7-0.7l3,16.9l-3.7,0.7L259.6,243.4z M268.3,250.6L268.3,250.6
	c-0.8-4.9,2.2-9.5,7.3-10.4c3-0.6,5-0.1,7.1,1.2l-1.8,3.2c-1.5-0.8-2.8-1.3-4.7-0.9c-2.7,0.5-4.4,3.2-4,6.1v0.1c0.6,3.1,3,5,6.1,4.4
	c1.3-0.2,2.5-0.8,3.3-1.6l-0.4-2.4l-3.7,0.7l-0.6-3.2l7.3-1.3l1.3,7.3c-1.5,1.8-3.6,3.4-6.8,4C273.5,258.7,269.2,255.6,268.3,250.6z
	 M292.1,237.5l3.5-0.6l10.2,15.7l-3.9,0.7l-2.2-3.5l-7.2,1.2l-0.9,4l-3.8,0.7L292.1,237.5z M297.7,246.8l-3.2-5.1l-1.3,5.8
	L297.7,246.8z M307.9,238.4l-5.1,0.9l-0.6-3.5l14-2.5l0.6,3.5l-5.1,0.9l2.4,13.5l-3.7,0.7L307.9,238.4z M318.9,232.9l3.7-0.7l3,16.9
	l-3.7,0.7L318.9,232.9z M327.6,240.2L327.6,240.2c-0.8-4.9,2.2-9.5,7.5-10.4c5.2-0.9,9.6,2.3,10.5,7.1v0.1c0.8,4.8-2.2,9.4-7.5,10.3
	C332.8,248.2,328.5,244.9,327.6,240.2z M341.7,237.7L341.7,237.7c-0.5-3-3-5-6.1-4.4c-3,0.5-4.6,3.3-4.1,6.2v0.1
	c0.5,2.9,3,4.9,6.1,4.4C340.5,243.3,342.2,240.6,341.7,237.7z M347.5,227.9l3.5-0.6l9.7,9l-1.8-10.4l3.7-0.7l3,16.9l-3.1,0.6
	l-10.1-9.3l1.9,10.7l-3.7,0.7L347.5,227.9z M222.9,275.3l6.6-1.2c5.3-0.9,9.6,2.1,10.5,6.8v0.1c0.8,4.8-2.1,9.1-7.5,10.1l-6.6,1.2
	L222.9,275.3z M231.9,287.8c3-0.6,4.7-3,4.2-5.9v-0.1c-0.5-3-3-4.7-6-4.2l-2.9,0.5l1.8,10.2L231.9,287.8z M242,272l3.7-0.7l3,16.9
	l-3.6,0.7L242,272z M251.4,285.2l1.7-3c1.7,1,3.5,1.5,5.4,1.2c1.5-0.2,2.3-1.1,2.1-2.1v-0.1c-0.2-0.9-0.8-1.3-3.8-1.6
	c-3.5-0.2-5.9-0.8-6.5-4.2v-0.1c-0.6-3,1.6-5.5,5-6.2c2.5-0.4,4.7,0,6.7,1.1l-1.4,3.1c-1.6-0.7-3.3-1.2-4.7-0.9
	c-1.4,0.2-2.1,1.1-1.9,1.9v0.1c0.2,1.1,1,1.3,4,1.6c3.6,0.2,5.8,1.2,6.3,4.1v0.1c0.6,3.4-1.6,5.7-5.3,6.3
	C256.5,287.1,253.8,286.7,251.4,285.2z M266,276.5L266,276.5c-0.8-4.9,2.1-9.4,7.2-10.4c3.2-0.6,5.3,0.2,7.1,1.4l-1.9,3.1
	c-1.5-1-3-1.5-4.7-1.2c-2.9,0.5-4.4,3.2-4,6.1v0.1c0.5,2.9,3,4.9,5.8,4.4c1.9-0.3,3-1.3,4.1-2.8l2.8,2c-1.4,2.1-3.1,3.6-6.4,4.2
	C271.3,284.6,266.9,281.3,266,276.5z M283.3,273.4L283.3,273.4c-0.8-4.9,2.2-9.5,7.5-10.4c5.2-0.9,9.6,2.3,10.5,7.1v0.1
	c0.8,4.8-2.2,9.4-7.5,10.3C288.6,281.5,284.2,278.3,283.3,273.4z M297.3,271L297.3,271c-0.5-3-3-5-6.1-4.4c-3,0.5-4.6,3.3-4.1,6.2
	v0.1c0.5,2.9,3,4.9,6,4.4C296.3,276.7,297.9,273.8,297.3,271z M300.7,261.7l4.1-0.7l6.5,11.1l2.3-12.7l4-0.7l-3.9,18.2l-3.3,0.6
	L300.7,261.7z M320.2,258.2L333,256l0.6,3.3l-9.1,1.6l0.6,3.5l8-1.4l0.6,3.3l-8,1.4l0.7,3.5l9.1-1.6l0.6,3.3l-12.9,2.3L320.2,258.2z
	 M336.7,255.3l7.7-1.4c2.1-0.4,4-0.1,5.2,0.8c1.1,0.7,1.8,2,2.1,3.6v0.1c0.5,2.7-0.7,4.7-2.7,5.8l5.2,5.3l-4.4,0.7l-4.6-4.8h-0.1
	l-2.9,0.5l1,5.4l-3.7,0.7L336.7,255.3z M345.7,262.2c1.8-0.3,2.7-1.5,2.4-2.9v-0.1c-0.2-1.6-1.6-2.2-3.4-1.9l-3.7,0.7l0.8,4.9
	L345.7,262.2z M360.2,261.7l-8.3-9.1l4.4-0.7l5.3,6.1l2.9-7.5l4.2-0.7l-4.7,11.3l1.2,6.8l-3.7,0.7L360.2,261.7z"/>
<linearGradient id="SVGID_7_" gradientUnits="userSpaceOnUse" x1="249.4466" y1="134.2986" x2="245.1276" y2="228.5322" gradientTransform="matrix(0.9962 8.720000e-02 8.720000e-02 -0.9962 -51.8623 303.3714)">
	<stop  offset="0" style="stop-color:#212121"/>
	<stop  offset="0.5153" style="stop-color:#B8B8B8"/>
	<stop  offset="1" style="stop-color:#F2F2F2"/>
</linearGradient>
<path fill="url(#SVGID_7_)" d="M198.9,199c0.6,3.3,1.9,4.4,6.3,3.5c4.4-0.7,11.6-2.1,17.6-3.2c4.6-0.8,5.4-2.1,4.9-5.4
	c-0.2-1.6-4.3-24.5-8.7-48.9c-9.7,2.3-19.3,4.2-28.6,5.8C194.7,175.1,198.6,197.5,198.9,199z"/>
<linearGradient id="SVGID_8_" gradientUnits="userSpaceOnUse" x1="324.824" y1="129.4266" x2="329.8484" y2="223.6273" gradientTransform="matrix(0.9962 8.720000e-02 8.720000e-02 -0.9962 -51.8623 303.3714)">
	<stop  offset="0" style="stop-color:#212121"/>
	<stop  offset="0.5153" style="stop-color:#B8B8B8"/>
	<stop  offset="1" style="stop-color:#F2F2F2"/>
</linearGradient>
<path fill="url(#SVGID_8_)" d="M338.3,97c-1.1,0.7-2.3,1.5-3.6,2.2c-7.2,4.2-14.3,8-21.4,11.5c1.4,3.6,2.3,7.2,3,11.2
	c4.1,22.8-3.8,36-23.6,39.5c0,0-17.1,3-18.7,3.4c-2.5,0.4-3.8-0.9-4.1-3c-0.2-1.5-2.8-15.7-5.4-30.2c-9.8,3.5-19.4,6.5-28.8,9.1
	c4.4,24.6,8.7,47.8,9,49.6c0.7,3.8,2,5.1,6,4.4c4-0.7,55.9-10,55.9-10c22-4,36.4-17.9,40.8-38.1L338.3,97z"/>
<path fill="#FFFFFF" d="M201.7,79.9c-4.9,0.9-14.6,2.6-17.6,3.2c-4.4,0.8-5.4,1.5-4.5,6.1c0.5,3,5.9,33.5,10.9,61.7
	c9.3-1.6,18.9-3.5,28.6-5.8c-5-28.3-10.4-58.7-10.8-61C207.5,79.9,206.6,79,201.7,79.9z"/>
<path fill="#FFFFFF" d="M258.4,99.2c-0.4-2.1,0.5-3.5,3-3.9s21.6-3.9,21.6-3.9c14.1-2.6,24.9,5,30.5,19.9c7-3.5,13.9-8,21.2-12.2
	c1.3-0.7,2.5-1.5,3.6-2.2l-1.3-7.6c-11.5-18.6-30.4-27.6-52.7-23.6c0,0-50.4,9.1-54.9,9.8c-4.4,0.8-5.4,2-4.5,6.3
	c0.5,2.9,5.8,31.7,10.7,58.9c9.4-2.6,19-5.6,28.8-9.1C261.5,116.2,258.5,100.3,258.4,99.2z"/>
<linearGradient id="SVGID_9_" gradientUnits="userSpaceOnUse" x1="254.3775" y1="179.1183" x2="264.9787" y2="146.3983" gradientTransform="matrix(0.9962 8.720000e-02 8.720000e-02 -0.9962 -51.8623 303.3714)">
	<stop  offset="0" style="stop-color:#F2F2F2"/>
	<stop  offset="0.4908" style="stop-color:#BFBFBF"/>
	<stop  offset="1" style="stop-color:#9E9E9E"/>
</linearGradient>
<path opacity="0.55" fill="url(#SVGID_9_)" enable-background="new    " d="M227.6,194c-0.2-1.6-4.3-24.4-8.7-48.8
	c-0.5,0.1-1,0.2-1.5,0.3c4.5,25.5,8.7,49.3,9,50.9c0.1,0.6,0.2,1.2,0.2,1.6C227.8,197.3,228,196,227.6,194z"/>
<linearGradient id="SVGID_10_" gradientUnits="userSpaceOnUse" x1="323.3017" y1="202.1459" x2="301.7072" y2="233.1634" gradientTransform="matrix(0.9962 8.720000e-02 8.720000e-02 -0.9962 -51.8623 303.3714)">
	<stop  offset="0" style="stop-color:#FAFAFA"/>
	<stop  offset="0.4908" style="stop-color:#D1D1D1"/>
	<stop  offset="1" style="stop-color:#ADADAD"/>
</linearGradient>
<path opacity="0.7" fill="url(#SVGID_10_)" enable-background="new    " d="M273.4,167.1c1.8-0.3,20.1-3.6,20.1-3.6
	c21.3-3.8,28.4-18.3,24-42.8c-0.7-4-1.7-7.4-2.8-10.7c-0.9,0.5-0.5,0.3-1.4,0.7c1.4,3.6,2.3,7.2,3,11.2c4.1,22.8-3.8,36-23.6,39.5
	c0,0-17.1,3-18.7,3.4c-2.5,0.4-3.8-0.9-4.1-3c-0.2-1.5-2.8-15.7-5.4-30.2c-0.3,0.2-0.7,0.2-1.1,0.4c2.7,15.1,5.5,30.2,5.8,31.7
	C269.4,166.2,270.8,167.6,273.4,167.1z"/>
<linearGradient id="SVGID_11_" gradientUnits="userSpaceOnUse" x1="184.5795" y1="212.3353" x2="228.7497" y2="209.3906" gradientTransform="matrix(0.9962 8.720000e-02 8.720000e-02 -0.9962 -51.8623 303.3714)">
	<stop  offset="0" style="stop-color:#1C1C1C"/>
	<stop  offset="0.5153" style="stop-color:#D1D1D1"/>
	<stop  offset="1" style="stop-color:#F2F2F2"/>
</linearGradient>
<path fill="url(#SVGID_11_)" d="M185.3,83.8c3-0.6,12.6-2.3,17.6-3.2c1.8-0.3,3.1-0.4,4-0.2c-0.9-1-2.4-1-5.3-0.5
	c-4.9,0.9-14.6,2.6-17.6,3.2c-4.4,0.8-5.4,1.5-4.5,6.1c0.5,3,5.9,33.5,10.9,61.7c0.3-0.1,0.7-0.2,1.1-0.2
	c-4.9-27.8-10.2-57.8-10.7-60.8C179.9,85.3,180.8,84.5,185.3,83.8z"/>
<linearGradient id="SVGID_12_" gradientUnits="userSpaceOnUse" x1="334.1756" y1="202.103" x2="309.5591" y2="227.9958" gradientTransform="matrix(0.9962 8.720000e-02 8.720000e-02 -0.9962 -51.8623 303.3714)">
	<stop  offset="0" style="stop-color:#FAFAFA"/>
	<stop  offset="0.4908" style="stop-color:#D1D1D1"/>
	<stop  offset="1" style="stop-color:#A6A6A6"/>
</linearGradient>
<path opacity="0.9" fill="url(#SVGID_12_)" enable-background="new    " d="M283.4,89.7c0,0-19.6,3.5-22.2,4c-2.6,0.5-3.5,1.8-3.2,4
	c0.2,1.2,3.3,18.3,6.2,34.4h0.1c-2.8-15.6-5.7-31.6-5.9-32.6c-0.4-2.1,0.5-3.5,3-3.9s21.6-3.9,21.6-3.9c14.1-2.6,24.9,4.8,30.5,19.8
	c0.5-0.2,0.9-0.5,1.4-0.7C309,95.4,297.9,87.2,283.4,89.7z"/>
<linearGradient id="SVGID_13_" gradientUnits="userSpaceOnUse" x1="236.695" y1="146.5706" x2="227.5133" y2="239.734" gradientTransform="matrix(0.9962 8.720000e-02 8.720000e-02 -0.9962 -51.8623 303.3714)">
	<stop  offset="0" style="stop-color:#1C1C1C"/>
	<stop  offset="0.5153" style="stop-color:#D1D1D1"/>
	<stop  offset="1" style="stop-color:#F2F2F2"/>
</linearGradient>
<path opacity="0.6" fill="url(#SVGID_13_)" enable-background="new    " d="M200.1,200c-0.4-1.8-8.7-49.3-8.7-49.3l0,0
	c-0.3,0.1-0.7,0.2-1.1,0.3c4.3,24.1,8.2,46.5,8.5,48c0.5,2.7,1.5,3.9,4.1,3.8C201.7,202.8,200.5,201.6,200.1,200z"/>
<linearGradient id="SVGID_14_" gradientUnits="userSpaceOnUse" x1="282.4922" y1="141.8953" x2="273.3105" y2="235.0583" gradientTransform="matrix(0.9962 8.720000e-02 8.720000e-02 -0.9962 -51.8623 303.3714)">
	<stop  offset="0" style="stop-color:#1C1C1C"/>
	<stop  offset="0.5767" style="stop-color:#B8B8B8"/>
	<stop  offset="0.9632" style="stop-color:#E0E0E0"/>
</linearGradient>
<path opacity="0.6" fill="url(#SVGID_14_)" enable-background="new    " d="M245.8,192.4c-0.3-1.8-9.1-51.8-9.1-51.8
	c-0.3,0.1-0.8,0.2-1.2,0.4c4.4,24.5,8.7,47.7,9,49.5c0.5,2.9,1.4,4.4,3.5,4.6C246.9,194.7,246.1,193.7,245.8,192.4z"/>
<linearGradient id="SVGID_15_" gradientUnits="userSpaceOnUse" x1="333.6737" y1="202.0673" x2="309.6169" y2="227.3714" gradientTransform="matrix(0.9962 8.720000e-02 8.720000e-02 -0.9962 -51.8623 303.3714)">
	<stop  offset="0" style="stop-color:#FAFAFA"/>
	<stop  offset="0.4908" style="stop-color:#D1D1D1"/>
	<stop  offset="1" style="stop-color:#A6A6A6"/>
</linearGradient>
<path fill="url(#SVGID_15_)" d="M283.7,90.7c0,0-19.6,3.5-22.2,4c-2.6,0.5-3.5,1.8-3.2,4c0.2,1.2,3.1,17.4,6,33.4h0.1
	c-2.8-15.6-5.7-31.6-5.9-32.6c-0.4-2.1,0.5-3.5,3-3.9s21.6-3.9,21.6-3.9c14.1-2.6,24.9,4.8,30.5,19.8c0.5-0.2,0,0,0.5-0.2
	C308.2,95.9,298.2,88.2,283.7,90.7z"/>
</svg>
