<?xml version="1.0" encoding="utf-8"?>
<!-- Generator: Adobe Illustrator 20.1.0, SVG Export Plug-In . SVG Version: 6.00 Build 0)  -->
<svg version="1.1" id="Lag_1" xmlns="http://www.w3.org/2000/svg" xmlns:xlink="http://www.w3.org/1999/xlink" x="0px" y="0px"
	 width="500px" height="300px" viewBox="0 0 500 300" enable-background="new 0 0 500 300" xml:space="preserve">
<g>
	<g>
		<path fill="#FFFFFF" d="M199.8,133.1c3.1,18.5,6.2,36.9,9.2,58.9h0.2c5-21.6,10.1-39.7,15.1-57.7h17.1c5.3,18,10.6,36.2,15.8,57.7
			h0.2c2.8-22,5.7-40.4,8.6-58.9l18,2.4l-16.3,81.3h-22.9c-4.5-15.3-9.1-30.6-13.5-49.5h-0.2c-4,18.9-8.1,34.2-12.2,49.5h-23
			l-17.1-81.3L199.8,133.1z"/>
		<path fill="#FFFFFF" d="M288.3,216.8v-82.4h20.6v82.4H288.3z"/>
		<path fill="#FFFFFF" d="M318.1,134.3h20.6v67h25v15.4h-45.6V134.3z"/>
		<path fill="#FFFFFF" d="M396.5,134.3c27.3,0,37.9,19,37.9,38.9c0,30.2-18.2,43.6-38.6,43.6H370v-82.4h26.5V134.3z M390.6,201.3
			h5.3c11.8,0,17.4-11.4,17.4-28c0-14.9-7.7-23.6-16.7-23.6h-5.9L390.6,201.3L390.6,201.3z"/>
	</g>
	<g>
		<path fill="#FFFFFF" d="M214.9,125.2H210c-6.4-9.2-12.7-18.4-19-28.8h-0.1v28.8h-5.4V85.1h4.9c6.4,9.2,12.7,18.3,18.9,28.6h0.1
			V85.1h5.3v40.1H214.9z"/>
		<path fill="#FFFFFF" d="M236.8,85.1l12.5,40.1h-7.5l-3.1-10.9h-11.8l-3.4,10.9h-5.8l13.5-40.1H236.8z M237.7,109.4
			c-1.4-5.3-2.8-10.1-4.4-16.3h-0.1c-1.4,6.2-3,11.1-4.5,16.3H237.7z"/>
		<path fill="#FFFFFF" d="M256.2,125.2V90.5H246v-5.4h27.2v5.4h-10.3v34.7H256.2z"/>
		<path fill="#FFFFFF" d="M315.9,106.9V123c-3.5,1.4-7.1,2.4-10.8,2.4c-11.2,0-18.2-8.9-18.2-20.4c0-10.6,7-19.9,18.4-19.9
			c3.5,0,7.1,1.3,9.2,3l-2.1,4.6c-1.7-1.1-4.5-2.1-6.9-2.1c-6.9,0-11.7,5.6-11.7,14.5c0,9.2,5.5,14.7,11,14.7c1.7,0,3.2-0.2,4.6-0.9
			v-12L315.9,106.9L315.9,106.9z"/>
		<path fill="#FFFFFF" d="M340.6,90.5h-11.1v11h10.9v5.4h-10.9v13h13.2v5.4h-19.9V85.1h17.9v5.4H340.6z"/>
		<path fill="#FFFFFF" d="M344.9,104.6c0-10.9,6.8-19.6,16.1-19.6c9.3,0,16.1,8.7,16.1,19.6c0,11.6-6.2,20.7-16.1,20.7
			C351,125.3,344.9,116.3,344.9,104.6z M370.1,104.6c0-7.2-2.7-14-9.2-14c-6.4,0-9.1,6.8-9.1,14c0,7.5,2.4,15.1,9.1,15.1
			C367.7,119.8,370.1,112.1,370.1,104.6z"/>
	</g>
	<g>
		<g>
			<g>
				<path fill="#FFD700" d="M67,216.8V85.1h91.9v131.7H67z M145.6,203.5V98.3H80.2v105.2H145.6z"/>
			</g>
		</g>
	</g>
</g>
</svg>
