<?xml version="1.0" encoding="utf-8"?>
<!-- Generator: Adobe Illustrator 20.1.0, SVG Export Plug-In . SVG Version: 6.00 Build 0)  -->
<svg version="1.1" id="Lag_1" xmlns="http://www.w3.org/2000/svg" xmlns:xlink="http://www.w3.org/1999/xlink" x="0px" y="0px"
	 width="500px" height="300px" viewBox="0 0 500 300" enable-background="new 0 0 500 300" xml:space="preserve">
<g>
	<g>
		<path fill="#F08700" d="M484.4,176.3h-1.8v-0.9h4.6v0.9h-1.8v5h-1.1L484.4,176.3L484.4,176.3z M488.5,175.3h0.2l2.9,3.2l2.8-3.2
			h0.2v6h-1.1v-3.7l-1.8,2.2h-0.2l-1.9-2.2v3.7h-1.1V175.3z"/>
	</g>
	<g>
		<path fill="#F08700" d="M35.1,137.7c-6.4,0-12.2,2.6-16.4,6.8s-6.8,10-6.8,16.4V182h17.6v-9.2v-11.5c0-2.5,0.6-4.7,1.6-6.4
			c1-1.7,2.4-2.6,3.9-2.6c1.6,0,2.9,1,3.9,2.6c1,1.7,1.6,3.8,1.6,6.4V182h17.6v-21.1c0-6.4-2.6-12.2-6.8-16.4
			C47.3,140.3,41.5,137.7,35.1,137.7"/>
		<path fill="#F08700" d="M455.3,137.7c-6.4,0-12.2,2.6-16.3,6.8c-4.2,4.2-6.8,10-6.8,16.4V182h17.6v-9.2v-11.5
			c0-2.5,0.6-4.7,1.6-6.4c1-1.7,2.4-2.6,3.9-2.6c1.6,0,2.9,1,3.9,2.6c1,1.7,1.6,3.8,1.6,6.4V182h17.6v-21.1c0-6.4-2.6-12.2-6.8-16.4
			C467.5,140.3,461.7,137.7,455.3,137.7"/>
		<path fill="#F08700" d="M77.1,132c1.8-1.8,2.9-4.2,2.9-6.9s-1.1-5.1-2.9-6.9c-1.8-1.8-4.2-2.9-6.9-2.9c-2.7,0-5.1,1.1-6.9,2.9
			c-1.8,1.8-2.9,4.2-2.9,6.9s1.1,5.1,2.9,6.9l2.2,2.2c3.6,3.6,3.9,4.6,0.4,8l-2,2c-1.6,1.6-2.6,3.8-2.6,6.3V182H79v-31.6
			c0-2.5-1-4.7-2.6-6.3l-2-2c-3.4-3.4-3.2-4.4,0.4-8L77.1,132z"/>
		<g>
			<path fill="#F08700" d="M108.6,168.2c-1,1.9-2.4,3-3.9,3c-1.6,0-2.9-1.1-3.9-3s-1.6-4.4-1.6-7.4c0-2.9,0.6-5.4,1.6-7.4
				c1-1.9,2.4-3,3.9-3c1.6,0,2.9,1.1,3.9,3c0.8,1.4,1.3,3.2,1.5,5.2h17.6c-0.5-5.5-3-10.5-6.7-14.2c-4.2-4.2-10-6.8-16.4-6.8
				s-12.2,2.6-16.4,6.8c-4.2,4.2-6.8,10-6.8,16.3c0,6.4,2.6,12.2,6.8,16.4c3.2,3.2,8.8,6.8,16.4,6.8c5.7,0,11-2.1,15-5.5
				c2.9-2.5,7.3-7.5,8-15.4H110C109.9,165.1,109.3,166.8,108.6,168.2z"/>
		</g>
		<g>
			<path fill="#F08700" d="M195,137.7c-6.4,0-12.2,2.6-16.4,6.8s-6.8,10-6.8,16.4s2.6,12.2,6.8,16.4c4.1,4.1,9.8,6.8,16.5,6.8
				c6.9,0,12.5-3.1,16.4-6.9c4.8-5.5,5.1-11.5,5.1-11.5H201c0,0-2.2,5.5-5.9,5.5c-1.6,0-2.9-1.1-3.9-3c-0.7-1.3-1.2-2.9-1.4-4.7H217
				c0,0,1.9-11.1-5.6-18.6C206.9,140.3,201.4,137.7,195,137.7z M189.9,156.7c0.3-1.4,0.7-2.5,1.2-3.4c0.8-1.7,2.4-3,3.9-3
				c1.6,0,2.9,1.1,4,3.1c0.5,0.9,0.9,2.3,1.1,3.3H189.9z"/>
		</g>
		<g>
			<path fill="#F08700" d="M359.3,137.7c-6.4,0-12.2,2.6-16.4,6.8c-4.2,4.2-6.8,10-6.8,16.4s2.6,12.2,6.8,16.4
				c4.1,4.1,9.8,6.8,16.5,6.8c6.9,0,12.5-3.1,16.4-6.9c4.8-5.5,5.1-11.5,5.1-11.5h-15.6c0,0-2.2,5.5-5.9,5.5c-1.6,0-2.9-1.1-3.9-3
				c-0.7-1.3-1.2-2.9-1.4-4.7h27.2c0,0,1.9-11.1-5.6-18.6C371.3,140.3,365.7,137.7,359.3,137.7z M354.2,156.7
				c0.3-1.4,0.7-2.5,1.2-3.4c0.8-1.7,2.4-3,3.9-3c1.6,0,2.9,1.1,4,3.1c0.5,0.9,0.9,2.3,1.1,3.3H354.2z"/>
		</g>
		<path fill="#F08700" d="M228.1,115.3c-4.8,0-8.8,3.9-8.8,8.8V182h17.6v-57.9C236.9,119.2,233,115.3,228.1,115.3"/>
		<path fill="#F08700" d="M262.5,137.7c-12.8,0-23.1,10.4-23.1,23.1c0,12.8,10.4,23.1,23.1,23.1c12.8,0,23.1-10.4,23.1-23.1
			C285.6,148.1,275.3,137.7,262.5,137.7z M262.5,171.3c-3.1,0-5.6-4.7-5.6-10.4s2.5-10.4,5.6-10.4s5.6,4.7,5.6,10.4
			C268.1,166.6,265.6,171.3,262.5,171.3z"/>
		<path fill="#F08700" d="M406.9,137.7c-12.8,0-23.1,10.4-23.1,23.1c0,12.8,10.4,23.1,23.1,23.1c12.8,0,23.1-10.4,23.1-23.1
			C430,148.1,419.7,137.7,406.9,137.7z M406.9,171.3c-3.1,0-5.6-4.7-5.6-10.4s2.5-10.4,5.6-10.4s5.6,4.7,5.6,10.4
			C412.5,166.6,410,171.3,406.9,171.3z"/>
		<path fill="#F08700" d="M334,160.9L334,160.9v-36.8c0-4.8-3.9-8.8-8.8-8.8c-4.8,0-8.8,3.9-8.8,8.8v14.4c-1.8-0.4-3.7-0.7-5.6-0.7
			c-6.4,0-12.2,2.6-16.4,6.8c-4.2,4.2-6.8,10-6.8,16.3c0,6.4,2.6,12.2,6.8,16.4l0,0c2.7,2.7,8.4,6.8,16.4,6.8s13.7-4.1,16.4-6.8l0,0
			C331.4,173.1,334,167.2,334,160.9L334,160.9z M310.8,171.3c-3.1,0-5.6-4.7-5.6-10.4s2.5-10.4,5.6-10.4s5.6,4.7,5.6,10.4
			C316.4,166.6,313.9,171.3,310.8,171.3z"/>
	</g>
	<path fill="#F08700" d="M174.4,178.9c0-0.6-0.2-1.1-0.5-1.6l-9.6-14.5l6.7-12.1c2.5-4.2,1.1-9.6-3.1-12c-4.2-2.5-9.6-1.1-12,3.1
		L148,156v-9.5c0-4.8-3.9-8.8-8.8-8.8c-4.8,0-8.8,3.9-8.8,8.8V182H148v-13.9l9.3,13.9h14.2l0,0C173.1,182,174.4,180.6,174.4,178.9z"
		/>
</g>
</svg>
