<?xml version="1.0" encoding="utf-8"?>
<!-- Generator: Adobe Illustrator 20.1.0, SVG Export Plug-In . SVG Version: 6.00 Build 0)  -->
<svg version="1.1" id="Lag_1" xmlns="http://www.w3.org/2000/svg" xmlns:xlink="http://www.w3.org/1999/xlink" x="0px" y="0px"
	 width="500px" height="300px" viewBox="0 0 500 300" enable-background="new 0 0 500 300" xml:space="preserve">
<g>
	<g>
		<path fill="#E61782" d="M449.6,134.4c-18.8,0-34.1,15.3-34.1,34.1s15.3,34.1,34.1,34.1c18.8,0,34.1-15.2,34.1-34.1
			C483.6,149.6,468.4,134.4,449.6,134.4z M464.4,170.1c0,4.9-1,8.4-3.1,11.4c-2.5,3.6-6.3,5.4-11.3,5.4h-1c-5,0-8.8-1.8-11.3-5.4
			c-2.1-3-3.1-6.5-3.1-11.4v-17.8c0-0.7,0.5-1.2,1.2-1.2h7.7c0.7,0,1.2,0.5,1.2,1.2v18.3c0,1.7,0.3,3.3,1,4.7
			c0.9,1.8,2.7,2.4,3.8,2.4c1.1,0,2.9-0.5,3.8-2.4c0.7-1.4,1-3,1-4.7v-18.3c0-0.7,0.6-1.2,1.2-1.2h7.7c0.7,0,1.2,0.5,1.2,1.2
			L464.4,170.1L464.4,170.1z"/>
		<path fill="#E61782" d="M296.9,134.4c-18.8,0-34.1,15.3-34.1,34.1s15.2,34.1,34.1,34.1c18.8,0,34.1-15.2,34.1-34.1
			C330.9,149.6,315.7,134.4,296.9,134.4z M311.7,170.1c0,4.9-1.1,8.4-3.1,11.4c-2.5,3.6-6.3,5.4-11.3,5.4h-0.9
			c-5,0-8.8-1.8-11.3-5.4c-2.1-3-3.1-6.5-3.1-11.4v-17.8c0-0.7,0.5-1.2,1.2-1.2h7.7c0.7,0,1.2,0.5,1.2,1.2v18.3c0,1.7,0.3,3.3,1,4.7
			c0.9,1.8,2.7,2.4,3.8,2.4c1.1,0,2.9-0.5,3.8-2.4c0.7-1.4,1-3,1-4.7v-18.3c0-0.7,0.5-1.2,1.2-1.2h7.7c0.7,0,1.2,0.5,1.2,1.2v17.8
			H311.7z"/>
		<path fill="#E61782" d="M378,134.7v51.1c0,0.7-0.6,1.2-1.2,1.2h-7.5c-0.7,0-1.2-0.6-1.2-1.2v-51.1c-16.4,2.5-28.9,16.6-28.9,33.6
			c0,18.8,15.3,34.1,34.1,34.1c18.8,0,34.1-15.2,34.1-34.1C407.3,151.3,394.6,137.1,378,134.7z"/>
		<path fill="#E61782" d="M220.5,134.4c-18.8,0-34.1,15.3-34.1,34.1s15.3,34.1,34.1,34.1s34.1-15.2,34.1-34.1
			S239.3,134.4,220.5,134.4z M233,157.8c0,0.5-0.2,1.2-0.5,1.6l-11,17.2c-0.2,0.4-0.1,0.7,0.4,0.7h9l0,0h0.9c0.7,0,1.2,0.5,1.2,1.2
			v7.3c0,0.7-0.5,1.2-1.2,1.2H209c-0.7,0-1.2-0.6-1.2-1.2v-5.5c0-0.5,0.2-1.2,0.5-1.6l11.1-17.1c0.3-0.4,0.1-0.7-0.4-0.7h-10
			c-0.7,0-1.2-0.6-1.2-1.2v-7.3c0-0.7,0.5-1.2,1.2-1.2h22.8c0.7,0,1.2,0.5,1.2,1.2V157.8z"/>
	</g>
	<polygon fill="#B2B2B2" points="109.9,218.3 120.4,218.3 211.4,83.6 200.8,83.6 	"/>
	<g>
		<path fill="#E61782" d="M124.3,110.5H89.1c-1.1,0-2.4,0.7-3,1.6l-7.6,11.2h42.9c1.7,0,3.3,0.9,3.6,2.9c0.2,2.5-2.4,4.8-4.9,4.8
			h-19.2c-1.1,0-2.4,0.7-3,1.6l-7.6,11.2h27.6c10.7,0,21.9-9.4,21.5-19.7C139,116.1,131.8,110.5,124.3,110.5z"/>
		<path fill="#E61782" d="M67,123.3H18.9l7.6-11.2c0.6-0.9,2-1.6,3-1.6h48.1L70,121.7C69.4,122.6,68,123.3,67,123.3z"/>
		<path fill="#E61782" d="M39.1,160.3l3.1-29.3h14.3l-3.1,29.6l18.8-27.9c0.6-0.9,2-1.6,3-1.6H89l-21.4,31.7c-0.6,0.9-2,1.6-3,1.6
			H42.8C40.6,164.4,38.9,162.6,39.1,160.3z"/>
		<path fill="#E61782" d="M121.5,164.4H76.4l7.6-11.2c0.6-0.9,2-1.6,3-1.6h45.1l-7.6,11.2C124,163.7,122.6,164.4,121.5,164.4z"/>
	</g>
</g>
</svg>
