<?xml version="1.0" encoding="utf-8"?>
<!-- Generator: Adobe Illustrator 20.1.0, SVG Export Plug-In . SVG Version: 6.00 Build 0)  -->
<svg version="1.1" id="Lag_1" xmlns="http://www.w3.org/2000/svg" xmlns:xlink="http://www.w3.org/1999/xlink" x="0px" y="0px"
	 width="500px" height="300px" viewBox="0 0 500 300" enable-background="new 0 0 500 300" xml:space="preserve">
<g>
	<g>
		<path fill="#FFFFFF" d="M447.6,134.4c-18.8,0-34,15.2-34,34s15.2,34,34,34s34-15.2,34-34C481.6,149.7,466.4,134.4,447.6,134.4z
			 M462.4,170.1c0,4.9-1,8.4-3.1,11.4c-2.5,3.6-6.3,5.4-11.3,5.4h-0.9c-5,0-8.8-1.8-11.3-5.4c-2.1-3-3.1-6.5-3.1-11.4v-17.8
			c0-0.7,0.5-1.2,1.2-1.2h7.6c0.7,0,1.2,0.5,1.2,1.2v18.3c0,1.7,0.3,3.3,1,4.7c0.9,1.8,2.7,2.4,3.8,2.4c1.1,0,2.9-0.5,3.8-2.4
			c0.7-1.4,1-3,1-4.7v-18.3c0-0.7,0.6-1.2,1.2-1.2h7.7c0.7,0,1.2,0.5,1.2,1.2L462.4,170.1L462.4,170.1z"/>
		<path fill="#FFFFFF" d="M295.2,134.4c-18.8,0-34,15.2-34,34s15.2,34,34,34s34-15.2,34-34C329.2,149.7,313.9,134.4,295.2,134.4z
			 M310,170.1c0,4.9-1.1,8.4-3.1,11.4c-2.5,3.6-6.3,5.4-11.3,5.4h-0.9c-5,0-8.8-1.8-11.3-5.4c-2.1-3-3.1-6.5-3.1-11.4v-17.8
			c0-0.7,0.5-1.2,1.2-1.2h7.7c0.7,0,1.2,0.5,1.2,1.2v18.3c0,1.7,0.3,3.3,1,4.7c0.9,1.8,2.7,2.4,3.8,2.4c1.1,0,2.9-0.5,3.8-2.4
			c0.7-1.4,1-3,1-4.7v-18.3c0-0.7,0.5-1.2,1.2-1.2h7.7c0.7,0,1.2,0.5,1.2,1.2v17.8H310z"/>
		<path fill="#FFFFFF" d="M376.2,134.8v51c0,0.7-0.6,1.2-1.2,1.2h-7.5c-0.7,0-1.2-0.6-1.2-1.2v-51c-16.3,2.5-28.9,16.6-28.9,33.6
			c0,18.8,15.2,34,34,34s34-15.2,34-34C405.4,151.3,392.7,137.1,376.2,134.8z"/>
		<path fill="#FFFFFF" d="M218.9,134.4c-18.8,0-34,15.2-34,34s15.2,34,34,34s34-15.2,34-34C253,149.7,237.7,134.4,218.9,134.4z
			 M231.4,157.8c0,0.5-0.2,1.2-0.5,1.6l-11,17.2c-0.2,0.4-0.1,0.7,0.4,0.7h8.9l0,0h0.9c0.7,0,1.2,0.5,1.2,1.2v7.3
			c0,0.7-0.5,1.2-1.2,1.2h-22.7c-0.7,0-1.2-0.6-1.2-1.2v-5.5c0-0.5,0.2-1.2,0.5-1.6l11-17.1c0.3-0.4,0.1-0.7-0.4-0.7h-9.9
			c-0.7,0-1.2-0.6-1.2-1.2v-7.3c0-0.7,0.5-1.2,1.2-1.2h22.7c0.7,0,1.2,0.5,1.2,1.2v5.4H231.4z"/>
	</g>
	<polygon fill="#E61782" points="108.5,218.3 119,218.3 209.8,83.7 199.3,83.7 	"/>
	<g>
		<path fill="#FFFFFF" d="M122.9,110.6H87.8c-1.1,0-2.4,0.7-3,1.6l-7.6,11.2H120c1.7,0,3.3,0.9,3.5,2.9c0.2,2.5-2.4,4.8-4.9,4.8
			H99.5c-1.1,0-2.4,0.7-3,1.6l-7.6,11.2h27.5c10.7,0,21.9-9.3,21.5-19.6C137.6,116.2,130.4,110.6,122.9,110.6z"/>
		<path fill="#FFFFFF" d="M65.6,123.4h-48l7.6-11.2c0.6-0.9,2-1.6,3-1.6h48l-7.6,11.2C68.1,122.7,66.7,123.4,65.6,123.4z"/>
		<path fill="#FFFFFF" d="M37.8,160.4l3.1-29.2h14.3l-3.1,29.5l18.8-27.9c0.6-0.9,2-1.6,3-1.6h13.8l-21.4,31.7c-0.6,0.9-2,1.6-3,1.6
			H41.5C39.3,164.4,37.6,162.6,37.8,160.4z"/>
		<path fill="#FFFFFF" d="M120.1,164.4h-45l7.6-11.2c0.6-0.9,2-1.6,3-1.6h45l-7.6,11.2C122.5,163.7,121.2,164.4,120.1,164.4z"/>
	</g>
</g>
</svg>
