<?xml version="1.0" encoding="utf-8"?>
<!-- Generator: Adobe Illustrator 20.1.0, SVG Export Plug-In . SVG Version: 6.00 Build 0)  -->
<svg version="1.1" id="Lag_1" xmlns="http://www.w3.org/2000/svg" xmlns:xlink="http://www.w3.org/1999/xlink" x="0px" y="0px"
	 width="500px" height="300px" viewBox="0 0 500 300" enable-background="new 0 0 500 300" xml:space="preserve">
<path fill="#DE1A12" d="M415.2,114.6c1.1,28.4-29.6,54-59.1,54h-75.9l20.9-30.8c1.7-2.4,5.4-4.5,8.4-4.5h52.7
	c6.8,0,14.1-6.3,13.5-13.2c-0.5-5.6-5.1-7.9-9.8-8H247.8l20.8-30.8c1.7-2.4,5.4-4.5,8.4-4.5h96.7C394.5,76.9,414.3,92.2,415.2,114.6
	z M224.5,107.7l20.8-30.8H113c-3,0-6.7,2-8.4,4.5l-20.8,30.8h132.2C219,112.2,222.8,110.2,224.5,107.7z M149.6,225.2h59.9
	c3,0,6.7-2,8.4-4.5l58.9-87.3h-37.9c-3,0-6.7,2-8.4,4.5l-51.9,76.8l8.6-81.3H148l-8.5,80.6C138.9,220.2,143.3,225.2,149.6,225.2z
	 M374.5,220.7l20.8-30.8H271.2c-3,0-6.7,2-8.4,4.5l-20.8,30.9h124.1C369.1,225.2,372.9,223.2,374.5,220.7z"/>
</svg>
